HIERARCHY
ROOT Hips
{
  OFFSET 666.929 92.018 240.213
  CHANNELS 6 Xposition Yposition Zposition Zrotation Xrotation Yrotation
  JOINT RightUpLeg
  {
    OFFSET -9.29713 -1.61933 -0.00216653
    CHANNELS 3 Zrotation Xrotation Yrotation
    JOINT RightLeg
    {
      OFFSET -0.0960174 -41.8784 0.0518774
      CHANNELS 3 Zrotation Xrotation Yrotation
      JOINT RightFoot
      {
        OFFSET 0.640077 -41.2901 0.594029
        CHANNELS 3 Zrotation Xrotation Yrotation
        End Site
        {
          OFFSET 0 -7.69 17.5
        }
      }
    }
  }
  JOINT LeftUpLeg
  {
    OFFSET 9.25271 -1.57779 -0.00790344
    CHANNELS 3 Zrotation Xrotation Yrotation
    JOINT LeftLeg
    {
      OFFSET -0.039202 -41.8727 -0.0184185
      CHANNELS 3 Zrotation Xrotation Yrotation
      JOINT LeftFoot
      {
        OFFSET -1.61914 -42.1234 0.183781
        CHANNELS 3 Zrotation Xrotation Yrotation
        End Site
        {
          OFFSET 0 -7.69 17.5
        }
      }
    }
  }
  JOINT Spine
  {
    OFFSET -0.0606732 14.309 0.0290433
    CHANNELS 3 Zrotation Xrotation Yrotation
    JOINT Spine1
    {
      OFFSET -0.0215329 9.72038 0.0138258
      CHANNELS 3 Zrotation Xrotation Yrotation
      JOINT Spine2
      {
        OFFSET -0.0121414 10.1279 0.0293225
        CHANNELS 3 Zrotation Xrotation Yrotation
        JOINT Spine3
        {
          OFFSET -0.0264151 9.72256 0.0189618
          CHANNELS 3 Zrotation Xrotation Yrotation
          JOINT Neck
          {
            OFFSET -0.0499375 10.3936 0.0317747
            CHANNELS 3 Zrotation Xrotation Yrotation
            JOINT Head
            {
              OFFSET -0.0192437 9.46991 0.0544912
              CHANNELS 3 Zrotation Xrotation Yrotation
              End Site
              {
                OFFSET 0 15.95 0
              }
            }
          }
          JOINT RightShoulder
          {
            OFFSET -3.22109 6.91215 0.0261624
            CHANNELS 3 Zrotation Xrotation Yrotation
            JOINT RightArm
            {
              OFFSET -12.8286 -0.0758378 0.0345821
              CHANNELS 3 Zrotation Xrotation Yrotation
              JOINT RightForeArm
              {
                OFFSET -26.5318 -0.0981562 -0.0633905
                CHANNELS 3 Zrotation Xrotation Yrotation
                JOINT RightHand
                {
                  OFFSET -25.9847 -0.0458948 0.0984586
                  CHANNELS 3 Zrotation Xrotation Yrotation
                  JOINT RightHandThumb1
                  {
                    OFFSET -2.48905 0.190105 3.12053
                    CHANNELS 3 Zrotation Xrotation Yrotation
                    JOINT RightHandThumb2
                    {
                      OFFSET -3.68274 0 0
                      CHANNELS 3 Zrotation Xrotation Yrotation
                      JOINT RightHandThumb3
                      {
                        OFFSET -2.55832 0 0
                        CHANNELS 3 Zrotation Xrotation Yrotation
                        End Site
                        {
                          OFFSET -2.194 0 0
                        }
                      }
                    }
                  }
                  JOINT RightInHandIndex
                  {
                    OFFSET -3.22368 0.508421 1.97842
                    CHANNELS 3 Zrotation Xrotation Yrotation
                    JOINT RightHandIndex1
                    {
                      OFFSET -5.21684 -0.091368 0.999158
                      CHANNELS 3 Zrotation Xrotation Yrotation
                      JOINT RightHandIndex2
                      {
                        OFFSET -3.61937 0 0
                        CHANNELS 3 Zrotation Xrotation Yrotation
                        JOINT RightHandIndex3
                        {
                          OFFSET -2.0521 0 0
                          CHANNELS 3 Zrotation Xrotation Yrotation
                          End Site
                          {
                            OFFSET -1.805 0 0
                          }
                        }
                      }
                    }
                  }
                  JOINT RightInHandMiddle
                  {
                    OFFSET -3.38211 0.517263 0.756737
                    CHANNELS 3 Zrotation Xrotation Yrotation
                    JOINT RightHandMiddle1
                    {
                      OFFSET -5.17411 -0.084 0.313895
                      CHANNELS 3 Zrotation Xrotation Yrotation
                      JOINT RightHandMiddle2
                      {
                        OFFSET -3.94947 0 0
                        CHANNELS 3 Zrotation Xrotation Yrotation
                        JOINT RightHandMiddle3
                        {
                          OFFSET -2.47579 0 0
                          CHANNELS 3 Zrotation Xrotation Yrotation
                          End Site
                          {
                            OFFSET -1.975 0 0
                          }
                        }
                      }
                    }
                  }
                  JOINT RightInHandRing
                  {
                    OFFSET -3.36516 0.537895 -0.128947
                    CHANNELS 3 Zrotation Xrotation Yrotation
                    JOINT RightHandRing1
                    {
                      OFFSET -4.63474 -0.022105 -0.478947
                      CHANNELS 3 Zrotation Xrotation Yrotation
                      JOINT RightHandRing2
                      {
                        OFFSET -3.44238 0 0
                        CHANNELS 3 Zrotation Xrotation Yrotation
                        JOINT RightHandRing3
                        {
                          OFFSET -2.3881 0 0
                          CHANNELS 3 Zrotation Xrotation Yrotation
                          End Site
                          {
                            OFFSET -1.857 0 0
                          }
                        }
                      }
                    }
                  }
                  JOINT RightInHandPinky
                  {
                    OFFSET -3.16105 0.469368 -1.20179
                    CHANNELS 3 Zrotation Xrotation Yrotation
                    JOINT RightHandPinky1
                    {
                      OFFSET -4.14105 -0.022105 -1.09053
                      CHANNELS 3 Zrotation Xrotation Yrotation
                      JOINT RightHandPinky2
                      {
                        OFFSET -2.75653 0 0
                        CHANNELS 3 Zrotation Xrotation Yrotation
                        JOINT RightHandPinky3
                        {
                          OFFSET -1.74189 0 0
                          CHANNELS 3 Zrotation Xrotation Yrotation
                          End Site
                          {
                            OFFSET -1.645 0 0
                          }
                        }
                      }
                    }
                  }
                }
              }
            }
          }
          JOINT LeftShoulder
          {
            OFFSET 3.18807 6.923 -0.00225834
            CHANNELS 3 Zrotation Xrotation Yrotation
            JOINT LeftArm
            {
              OFFSET 12.7812 0.000124506 -0.0210528
              CHANNELS 3 Zrotation Xrotation Yrotation
              JOINT LeftForeArm
              {
                OFFSET 26.5151 0.0429551 -0.0429125
                CHANNELS 3 Zrotation Xrotation Yrotation
                JOINT LeftHand
                {
                  OFFSET 26.0174 0.181648 -0.0288711
                  CHANNELS 3 Zrotation Xrotation Yrotation
                  JOINT LeftHandThumb1
                  {
                    OFFSET 2.48905 0.190105 3.12053
                    CHANNELS 3 Zrotation Xrotation Yrotation
                    JOINT LeftHandThumb2
                    {
                      OFFSET 3.68274 0 0
                      CHANNELS 3 Zrotation Xrotation Yrotation
                      JOINT LeftHandThumb3
                      {
                        OFFSET 2.55832 0 0
                        CHANNELS 3 Zrotation Xrotation Yrotation
                        End Site
                        {
                          OFFSET 2.194 0 0
                        }
                      }
                    }
                  }
                  JOINT LeftInHandIndex
                  {
                    OFFSET 3.22368 0.508421 1.97842
                    CHANNELS 3 Zrotation Xrotation Yrotation
                    JOINT LeftHandIndex1
                    {
                      OFFSET 5.21684 -0.091368 0.999158
                      CHANNELS 3 Zrotation Xrotation Yrotation
                      JOINT LeftHandIndex2
                      {
                        OFFSET 3.61937 0 0
                        CHANNELS 3 Zrotation Xrotation Yrotation
                        JOINT LeftHandIndex3
                        {
                          OFFSET 2.0521 0 0
                          CHANNELS 3 Zrotation Xrotation Yrotation
                          End Site
                          {
                            OFFSET 1.805 0 0
                          }
                        }
                      }
                    }
                  }
                  JOINT LeftInHandMiddle
                  {
                    OFFSET 3.38211 0.517263 0.756737
                    CHANNELS 3 Zrotation Xrotation Yrotation
                    JOINT LeftHandMiddle1
                    {
                      OFFSET 5.17411 -0.084 0.313895
                      CHANNELS 3 Zrotation Xrotation Yrotation
                      JOINT LeftHandMiddle2
                      {
                        OFFSET 3.94947 0 0
                        CHANNELS 3 Zrotation Xrotation Yrotation
                        JOINT LeftHandMiddle3
                        {
                          OFFSET 2.47579 0 0
                          CHANNELS 3 Zrotation Xrotation Yrotation
                          End Site
                          {
                            OFFSET 1.975 0 0
                          }
                        }
                      }
                    }
                  }
                  JOINT LeftInHandRing
                  {
                    OFFSET 3.36516 0.537895 -0.128947
                    CHANNELS 3 Zrotation Xrotation Yrotation
                    JOINT LeftHandRing1
                    {
                      OFFSET 4.63474 -0.022105 -0.478947
                      CHANNELS 3 Zrotation Xrotation Yrotation
                      JOINT LeftHandRing2
                      {
                        OFFSET 3.44238 0 0
                        CHANNELS 3 Zrotation Xrotation Yrotation
                        JOINT LeftHandRing3
                        {
                          OFFSET 2.3881 0 0
                          CHANNELS 3 Zrotation Xrotation Yrotation
                          End Site
                          {
                            OFFSET 1.857 0 0
                          }
                        }
                      }
                    }
                  }
                  JOINT LeftInHandPinky
                  {
                    OFFSET 3.16105 0.469368 -1.20179
                    CHANNELS 3 Zrotation Xrotation Yrotation
                    JOINT LeftHandPinky1
                    {
                      OFFSET 4.14105 -0.022105 -1.09053
                      CHANNELS 3 Zrotation Xrotation Yrotation
                      JOINT LeftHandPinky2
                      {
                        OFFSET 2.75653 0 0
                        CHANNELS 3 Zrotation Xrotation Yrotation
                        JOINT LeftHandPinky3
                        {
                          OFFSET 1.74189 0 0
                          CHANNELS 3 Zrotation Xrotation Yrotation
                          End Site
                          {
                            OFFSET 1.645 0 0
                          }
                        }
                      }
                    }
                  }
                }
              }
            }
          }
        }
      }
    }
  }
}
MOTION
Frames:	5
Frame Time:	0.00833333
665.065 87.6207 220.718 22.395 0.0193372 -121.391 30.4902 -38.7459 43.4745 -3.09496 20.7205 -13.8907 9.64581 9.88586 53.3282 27.6388 -23.176 7.45664 -19.6235 48.9374 22.1836 -4.1362 -13.3957 41.455 -6.43229 6.00946 -19.4115 -1.79615 0.814449 -5.0975 -2.92643 0.992464 -8.16353 -0.625393 -0.663078 2.77027 0.994184 -9.2508 47.1591 -9.78321 4.77221 26.5289 4.08173 -1.12538 -23.665 64.2227 -58.9591 40.756 26.9471 -18.1207 135.879 29.9803 -4.67329 10.4705 28.184 10.7294 19.1592 1.68245e-15 9.54166e-15 -10 1.05399e-15 -3.18055e-15 -10 -1.59028e-15 -9.54166e-15 -1.59028e-15 19.9818 0.871897 2.3964 24 -6.36111e-15 1.59028e-15 20 0 -0 -1.59028e-15 -9.54166e-15 -1.59028e-15 20 -1.59028e-14 3.57812e-15 24 -6.36111e-15 -6.36111e-15 20 3.18055e-15 -3.18055e-15 -1.59028e-15 -9.54166e-15 -1.59028e-15 19.9748 -1.02565 -2.81938 24 -6.36111e-15 6.36111e-15 20 9.54166e-15 1.59028e-14 -1.59028e-15 -9.54166e-15 -1.59028e-15 19.7815 -3.00948 -8.30515 24 -3.18055e-15 -1.27222e-14 20 0 6.36111e-15 13.1149 -13.9382 -41.4859 3.30541 4.45792 -120.887 32.521 -25.3269 -43.7387 -22.0343 15.3374 -16.8047 -28.184 10.7294 -19.1592 2.10798e-15 6.36111e-15 10 4.75496e-15 -6.36111e-15 10 6.36111e-15 6.36111e-15 -6.36111e-15 -19.9818 0.871897 -2.3964 -24 1.90833e-14 -4.37326e-15 -20 -6.36111e-15 -0 6.36111e-15 6.36111e-15 -6.36111e-15 -20 6.36111e-15 -7.95139e-15 -24 -6.36111e-15 3.97569e-15 -20 6.36111e-15 -0 6.36111e-15 6.36111e-15 -6.36111e-15 -19.9748 -1.02565 2.81938 -24 6.36111e-15 -7.95139e-16 -20 -9.54166e-15 4.77083e-15 6.36111e-15 6.36111e-15 -6.36111e-15 -19.7815 -3.00948 8.30515 -24 -3.18055e-15 -0 -20 6.36111e-15 -3.18055e-15 
665.194 87.6351 220.927 22.5876 0.111031 -121.137 30.5457 -39.0186 43.6905 -3.0495 20.8637 -13.8523 9.80002 9.65666 52.8872 27.6236 -23.6892 7.47774 -19.1661 49.2178 21.5262 -3.69381 -13.256 41.2798 -6.29388 6.02359 -19.2936 -1.76052 0.832037 -5.06484 -2.86853 1.02732 -8.11747 -0.625094 -0.662022 2.77058 0.931153 -9.26468 46.8019 -9.82151 4.73227 26.3382 4.10953 -1.23892 -24.1288 64.0892 -59.1392 40.6808 27.8532 -17.5251 135.404 30.0431 -4.43804 10.7374 28.184 10.7294 19.1592 5.00154e-15 3.18055e-15 -10 -1.68245e-15 -9.54166e-15 -10 9.54166e-15 -3.18055e-15 1.59028e-15 19.9818 0.871897 2.3964 24 -6.36111e-15 -9.54166e-15 20 0 3.18055e-15 9.54166e-15 -3.18055e-15 1.59028e-15 20 -9.54166e-15 -5.1684e-15 24 -9.54166e-15 -6.36111e-15 20 -6.36111e-15 -1.27222e-14 9.54166e-15 -3.18055e-15 1.59028e-15 19.9748 -1.02565 -2.81938 24 0 -3.18055e-15 20 6.36111e-15 -0 9.54166e-15 -3.18055e-15 1.59028e-15 19.7815 -3.00948 -8.30515 24 0 -3.18055e-15 20 -6.36111e-15 1.59028e-14 13.1423 -13.9425 -41.5251 3.22304 4.53788 -120.849 32.5876 -25.16 -43.2792 -22.0291 15.7007 -16.8162 -28.184 10.7294 -19.1592 1.61481e-15 0 10 1.52534e-15 -6.36111e-15 10 1.59028e-15 0 3.18055e-15 -19.9818 0.871897 -2.3964 -24 0 1.19271e-15 -20 0 -1.59028e-15 1.59028e-15 0 3.18055e-15 -20 6.36111e-15 3.18055e-15 -24 -3.18055e-15 3.18055e-15 -20 0 -0 1.59028e-15 0 3.18055e-15 -19.9748 -1.02565 2.81938 -24 -9.54166e-15 -1.59028e-15 -20 -3.18055e-15 -4.77083e-15 1.59028e-15 0 3.18055e-15 -19.7815 -3.00948 8.30515 -24 3.18055e-15 -0 -20 9.54166e-15 -0 
665.345 87.6433 221.132 23.0686 0.347236 -120.514 30.68 -39.6307 43.6582 -2.99126 20.9984 -13.9113 9.78979 9.32391 52.4803 27.8201 -24.5236 7.30092 -18.7011 49.4744 20.8524 -3.26603 -13.1442 41.0351 -5.96132 5.97609 -19.3964 -1.67637 0.843653 -5.08336 -2.73137 1.05649 -8.14748 -0.624734 -0.660975 2.77505 0.887628 -9.22114 46.7817 -9.82116 4.66565 26.3615 4.088 -1.33905 -24.4561 64.9413 -57.9378 41.1367 27.5551 -17.4972 135.406 30.0009 -4.11166 11.0151 28.184 10.7294 19.1592 -1.77193e-15 -3.18055e-15 -10 6.45924e-15 0 -10 1.59028e-15 3.18055e-15 -3.18055e-15 19.9818 0.871897 2.3964 24 0 -7.95139e-15 20 0 3.18055e-15 1.59028e-15 3.18055e-15 -3.18055e-15 20 -9.54166e-15 -1.98785e-15 24 0 1.59028e-15 20 -3.18055e-15 -0 1.59028e-15 3.18055e-15 -3.18055e-15 19.9748 -1.02565 -2.81938 24 1.27222e-14 -0 20 -9.54166e-15 -3.18055e-15 1.59028e-15 3.18055e-15 -3.18055e-15 19.7815 -3.00948 -8.30515 24 9.54166e-15 3.18055e-15 20 3.18055e-15 -0 13.1543 -13.9492 -41.5503 3.23188 4.485 -121.032 32.6963 -24.9851 -42.4575 -22.0236 16.0782 -16.8231 -28.184 10.7294 -19.1592 -5.71948e-15 9.54166e-15 10 9.6452e-16 -3.18055e-15 10 -1.59028e-15 -3.18055e-15 -0 -19.9818 0.871897 -2.3964 -24 -6.36111e-15 3.57812e-15 -20 -6.36111e-15 1.59028e-15 -1.59028e-15 -3.18055e-15 -0 -20 0 -5.56597e-15 -24 -3.18055e-15 -0 -20 -9.54166e-15 -1.59028e-15 -1.59028e-15 -3.18055e-15 -0 -19.9748 -1.02565 2.81938 -24 3.18055e-15 1.59028e-15 -20 0 -0 -1.59028e-15 -3.18055e-15 -0 -19.7815 -3.00948 8.30515 -24 3.18055e-15 1.59028e-15 -20 3.18055e-15 -0 
665.536 87.6525 221.345 23.6908 0.619326 -119.715 30.8353 -40.422 43.5281 -2.9481 21.1277 -13.9118 9.73003 8.96725 51.9912 28.1024 -25.5318 7.07695 -18.2084 49.7074 20.1581 -2.87408 -13.0512 40.743 -5.55226 5.88918 -19.5798 -1.57248 0.849681 -5.11992 -2.562 1.07855 -8.20419 -0.624845 -0.659888 2.78116 0.851212 -9.14058 46.9377 -9.79063 4.5692 26.5004 4.02264 -1.42122 -24.7181 66.2878 -55.847 41.8478 26.5124 -17.8447 135.656 29.9189 -3.78384 11.3434 28.184 10.7294 19.1592 -1.52534e-15 -6.36111e-15 -10 -3.1423e-16 -6.36111e-15 -10 -1.59028e-15 0 -0 19.9818 0.871897 2.3964 24 6.36111e-15 -9.54166e-15 20 3.18055e-15 -3.18055e-15 -1.59028e-15 0 -0 20 -9.54166e-15 -5.76476e-15 24 6.36111e-15 -3.18055e-15 20 0 -3.18055e-15 -1.59028e-15 0 -0 19.9748 -1.02565 -2.81938 24 0 -6.36111e-15 20 -3.18055e-15 -0 -1.59028e-15 0 -0 19.7815 -3.00948 -8.30515 24 3.18055e-15 -6.36111e-15 20 -3.18055e-15 -9.54166e-15 13.1619 -13.9667 -41.566 3.35773 4.2134 -121.573 32.8438 -24.8011 -41.1203 -22.0883 16.4723 -16.7994 -28.184 10.7294 -19.1592 2.10798e-15 6.36111e-15 10 1.25584e-15 3.18055e-15 10 4.77083e-15 0 -0 -19.9818 0.871897 -2.3964 -24 3.18055e-15 -0 -20 0 -3.18055e-15 4.77083e-15 0 -0 -20 -1.27222e-14 1.59028e-15 -24 0 -7.95139e-16 -20 -9.54166e-15 -1.59028e-15 4.77083e-15 0 -0 -19.9748 -1.02565 2.81938 -24 -9.54166e-15 -3.97569e-15 -20 0 -3.18055e-15 4.77083e-15 0 -0 -19.7815 -3.00948 8.30515 -24 -3.18055e-15 -1.59028e-15 -20 3.18055e-15 6.36111e-15 
665.745 87.6735 221.58 24.0565 0.708059 -119.289 30.9175 -40.9135 43.7818 -2.88752 21.2672 -13.8557 9.80408 8.73095 51.4129 28.228 -26.2538 7.23128 -17.6569 49.909 19.4327 -2.54212 -13.0244 40.3794 -5.35033 5.79456 -19.7115 -1.52009 0.840487 -5.14717 -2.47676 1.07027 -8.24507 -0.621947 -0.658713 2.78424 0.833708 -9.09236 47.0036 -9.76279 4.51792 26.5669 3.68539 -1.36078 -23.1407 66.117 -56.2117 40.9004 26.4807 -17.6811 135.433 29.752 -3.59661 11.6191 28.184 10.7294 19.1592 -2.08616e-15 -9.54166e-15 -10 1.61481e-15 0 -10 3.18055e-15 -6.36111e-15 -1.59028e-15 19.9818 0.871897 2.3964 24 -3.18055e-15 -4.77083e-15 20 3.18055e-15 -3.18055e-15 3.18055e-15 -6.36111e-15 -1.59028e-15 20 0 -4.37326e-15 24 -3.18055e-15 -7.95139e-15 20 6.36111e-15 -3.18055e-15 3.18055e-15 -6.36111e-15 -1.59028e-15 19.9748 -1.02565 -2.81938 24 -9.54166e-15 -4.77083e-15 20 -9.54166e-15 -9.54166e-15 3.18055e-15 -6.36111e-15 -1.59028e-15 19.7815 -3.00948 -8.30515 24 3.18055e-15 -9.54166e-15 20 -6.36111e-15 -6.36111e-15 13.1684 -13.8455 -41.3565 3.42395 4.15681 -121.773 32.937 -24.603 -40.0196 -22.2781 16.9194 -16.7209 -28.184 10.7294 -19.1592 -1.92904e-15 6.36111e-15 10 -1.57115e-16 3.18055e-15 10 -1.59028e-15 3.18055e-15 -3.18055e-15 -19.9818 0.871897 -2.3964 -24 3.18055e-15 3.97569e-15 -20 -6.36111e-15 6.36111e-15 -1.59028e-15 3.18055e-15 -3.18055e-15 -20 -3.18055e-15 -0 -24 -1.27222e-14 -7.95139e-16 -20 0 3.18055e-15 -1.59028e-15 3.18055e-15 -3.18055e-15 -19.9748 -1.02565 2.81938 -24 -6.36111e-15 6.36111e-15 -20 6.36111e-15 3.18055e-15 -1.59028e-15 3.18055e-15 -3.18055e-15 -19.7815 -3.00948 8.30515 -24 9.54166e-15 -0 -20 -3.18055e-15 -6.36111e-15 
